<?xml version="1.0" encoding="UTF-8"?>
<svg id="Capa_1" data-name="Capa 1" xmlns="http://www.w3.org/2000/svg" viewBox="0 0 14.11 16.78">
  <defs>
    <style>
      .cls-1 {
        fill: #e1fd15;
        stroke-width: 0px;
      }
    </style>
  </defs>
  <path class="cls-1" d="M0,16.59c.78-.79,1.57-1.59,2.36-2.37,1.65-1.65,3.31-3.3,4.97-4.95.07-.07.15-.15.19-.18.59.58,1.16,1.14,1.71,1.69-1.11,1.13-2.25,2.27-3.45,3.48.46.08.85.04,1.23.03.13,0,.2-.13.28-.22,1.02-1.02,2.03-2.03,3.04-3.05.26-.26.26-.27,0-.53-1.92-1.91-3.83-3.82-5.75-5.73C3.13,3.31,1.66,1.84.19.37.12.31.06.24,0,.17c0-.05,0-.1,0-.15C1.49.01,2.97,0,4.46,0,5.56,0,6.66,0,7.76,0c.2,0,.38.02.54.18,1.3,1.31,2.61,2.62,3.91,3.93.01.05.05.08.1.09.17.13.32.28.45.45.01.05.04.08.1.1.42.38.82.76,1.19,1.19.02.03.04.07.06.1,0,1.07,0,2.13,0,3.2-.06,0-.11,0-.17.01-.24-.23-.49-.46-.72-.7-2.05-2.03-4.1-4.07-6.14-6.1-.39-.17-.8-.07-1.2-.06-.09,0-.07.11,0,.16,1.58,1.57,3.17,3.14,4.75,4.72,1.07,1.07,2.14,2.14,3.21,3.21.09.09.19.16.23.28-.04.11-.13.17-.2.25-1.84,1.83-3.68,3.67-5.52,5.5-.14.14-.27.26-.5.26-2.61-.01-5.23-.01-7.84-.02,0-.06,0-.11,0-.17Z"/>
</svg>