<?xml version="1.0" encoding="UTF-8"?>
<svg id="Capa_1" data-name="Capa 1" xmlns="http://www.w3.org/2000/svg" viewBox="0 0 2036.39 786.29">
  <defs>
    <style>
      .cls-1 {
        letter-spacing: 0em;
      }

      .cls-2 {
        fill: #e1fd15;
      }

      .cls-2, .cls-3 {
        stroke-width: 0px;
      }

      .cls-4 {
        letter-spacing: -.04em;
      }

      .cls-5 {
        fill: #fff;
        font-family: Audiowide-Regular, Audiowide;
        font-size: 692.61px;
      }

      .cls-3 {
        fill: #defd48;
      }
    </style>
  </defs>
  <g>
    <path class="cls-2" d="M2.33,579.43c17.11-17.25,34.15-34.56,51.34-51.72,36.05-36,72.18-71.92,108.29-107.87,1.63-1.62,3.35-3.16,4.25-4.01,12.76,12.58,25.22,24.87,37.32,36.79-24.3,24.54-49.1,49.58-75.11,75.86,10.05,1.78,18.47.95,26.82.74,2.86-.07,4.36-2.85,6.21-4.71,22.13-22.14,44.25-44.28,66.36-66.45,5.67-5.68,5.72-5.81.02-11.49-41.74-41.62-83.52-83.19-125.28-124.79-32.06-31.94-64.12-63.88-96.16-95.84-1.41-1.4-2.65-2.97-3.96-4.46.03-1.12.07-2.23.1-3.35,32.31-.1,64.62-.23,96.92-.29,23.98-.05,47.97.03,71.95-.05,4.43-.01,8.25.38,11.75,3.92,28.32,28.66,56.83,57.14,85.29,85.67.31,1.11,1.02,1.8,2.15,2.06,3.73,2.86,7,6.18,9.88,9.89.27,1.13.96,1.84,2.08,2.13,9.06,8.21,17.87,16.67,25.9,25.91.42.74.84,1.48,1.26,2.22.02,23.26.04,46.52.06,69.78-1.23.11-2.46.22-3.69.33-5.26-5.07-10.59-10.08-15.78-15.23-44.65-44.33-89.28-88.68-133.91-133.02-8.5-3.78-17.36-1.57-26.05-1.29-1.93.06-1.55,2.38.15,3.55,34.51,34.27,69.04,68.52,103.52,102.81,23.38,23.25,46.72,46.55,70.04,69.87,1.86,1.86,4.12,3.44,5.02,6.11-.76,2.35-2.73,3.74-4.36,5.36-40.11,39.99-80.23,79.95-120.33,119.94-3.09,3.08-5.91,5.69-11,5.66-56.96-.29-113.92-.3-170.88-.39-.06-1.21-.13-2.43-.19-3.64Z"/>
    <path class="cls-3" d="M130.51,273.71c-1.71-1.18-2.08-3.49-.15-3.55,8.69-.27,17.55-2.48,26.05,1.29-5.88.09-11.77.11-17.65.29-2.86.09-5.98-.67-8.25,1.97Z"/>
    <path class="cls-3" d="M306.1,419.7c1.23-.11,2.46-.22,3.69-.33.41,1.3.48,2.67-1.24,2.77-1.4.08-2.16-1.08-2.45-2.44Z"/>
    <path class="cls-3" d="M2.53,218.14c-.03,1.12-.07,2.23-.1,3.35-1.48-.32-2.51-1.36-2.32-2.72.14-1.06,1.41-1.12,2.43-.63Z"/>
    <path class="cls-3" d="M2.33,579.43c.06,1.21.13,2.43.19,3.64-.91.41-2.1.44-2.38-.42-.57-1.74.68-2.67,2.19-3.22Z"/>
    <path class="cls-3" d="M270.59,309.45c-1.13-.25-1.84-.95-2.15-2.06,1.13.25,1.84.95,2.15,2.06Z"/>
    <path class="cls-3" d="M282.56,321.47c-1.12-.29-1.82-1-2.08-2.13,1.11.3,1.82,1,2.08,2.13Z"/>
    <path class="cls-3" d="M309.72,349.6c-.42-.74-.84-1.48-1.26-2.22,1.09.36,1.7.99,1.26,2.22Z"/>
  </g>
  <text class="cls-5" transform="translate(347.13 588.79)"><tspan x="0" y="0">so</tspan><tspan class="cls-4" x="887.41" y="0">r</tspan><tspan class="cls-1" x="1236.76" y="0">a</tspan></text>
</svg>